<svg width="500" height="120" viewBox="0 0 500 120" fill="none" xmlns="http://www.w3.org/2000/svg">
<path fill-rule="evenodd" clip-rule="evenodd" d="M54.401 64.0672L77.0359 77.0014C78.8544 78.0405 80.1197 79.8312 80.4918 81.8923L81.1043 85.2844C82.4874 92.9448 93.4201 93.0912 95.0078 85.4705L95.7735 81.7949C96.191 79.7909 97.4551 78.0656 99.24 77.0635L122.103 64.2279C126.14 61.9619 131.229 64.1135 132.416 68.5876L136.996 85.848C137.456 87.5841 136.91 89.4321 135.579 90.6388C131.506 94.3329 135.828 100.864 140.821 98.5598L146.329 96.0177C148.87 94.8449 150.193 92.0089 149.459 89.3079L138.541 49.1074C138.033 47.2374 136.781 45.6572 135.077 44.7349L134.303 44.3162C133.589 43.9297 132.726 43.9374 132.019 44.3367L113.765 54.6421C113.579 54.7833 113.38 54.9137 113.167 55.0318L108.407 57.6667L91.2017 67.3799C91.1646 67.4008 91.1187 67.374 91.1187 67.3314C91.1187 67.289 91.0732 67.2622 91.0361 67.2827L89.9285 67.8959C88.4709 68.7027 86.6959 68.6817 85.2578 67.8406L67.6722 57.5547L44.1146 43.8376C43.4031 43.4233 42.5271 43.4096 41.803 43.8014L40.1207 44.7118C38.3916 45.6476 37.1292 47.2601 36.6358 49.1633L26.1782 89.4996C25.5048 92.097 26.7871 94.8041 29.2234 95.9285L34.6498 98.433C39.5266 100.684 43.7197 94.2674 39.7001 90.7047C38.3093 89.4719 37.7827 87.5313 38.3596 85.7645L44.1544 68.0181C45.5472 63.7526 50.505 61.8409 54.401 64.0672ZM114.264 46.033C113.542 46.4654 112.645 46.4807 111.908 46.073L89.9285 33.9057C88.4709 33.0988 86.6959 33.1198 85.2578 33.961L64.7101 45.9795C63.9562 46.4204 63.0205 46.4092 62.2775 45.9502L54.3319 41.0427C52.7876 40.0888 52.8525 37.8217 54.4489 36.9578L84.2065 20.8536C86.3097 19.7155 88.8452 19.7155 90.9484 20.8536L121.638 37.4622C123.247 38.3329 123.297 40.624 121.727 41.5639L114.264 46.033Z" fill="black"/>
<path d="M179.639 40.5836H188.013L199.227 67.9547H199.67L210.884 40.5836H219.257V78.3572H212.691V52.4063H212.341L201.901 78.2465H196.995L186.556 52.351H186.206V78.3572H179.639V40.5836Z" fill="black"/>
<path d="M260.461 59.4704C260.461 63.5404 259.699 67.0263 258.174 69.9282C256.662 72.8178 254.596 75.0311 251.977 76.5681C249.37 78.1051 246.413 78.8736 243.106 78.8736C239.798 78.8736 236.835 78.1051 234.216 76.5681C231.609 75.0188 229.543 72.7993 228.018 69.9098C226.506 67.0079 225.75 63.5281 225.75 59.4704C225.75 55.4004 226.506 51.9206 228.018 49.031C229.543 46.1292 231.609 43.9097 234.216 42.3727C236.835 40.8357 239.798 40.0672 243.106 40.0672C246.413 40.0672 249.37 40.8357 251.977 42.3727C254.596 43.9097 256.662 46.1292 258.174 49.031C259.699 51.9206 260.461 55.4004 260.461 59.4704ZM253.582 59.4704C253.582 56.6054 253.133 54.1892 252.235 52.2219C251.35 50.2422 250.12 48.7482 248.547 47.7399C246.973 46.7194 245.159 46.2091 243.106 46.2091C241.052 46.2091 239.238 46.7194 237.665 47.7399C236.091 48.7482 234.855 50.2422 233.957 52.2219C233.072 54.1892 232.629 56.6054 232.629 59.4704C232.629 62.3354 233.072 64.7577 233.957 66.7374C234.855 68.7048 236.091 70.1987 237.665 71.2193C239.238 72.2276 241.052 72.7317 243.106 72.7317C245.159 72.7317 246.973 72.2276 248.547 71.2193C250.12 70.1987 251.35 68.7048 252.235 66.7374C253.133 64.7577 253.582 62.3354 253.582 59.4704Z" fill="black"/>
<path d="M279.731 78.3572H266.931V40.5836H279.989C283.739 40.5836 286.961 41.3398 289.654 42.8523C292.359 44.3524 294.437 46.5103 295.888 49.3261C297.339 52.1419 298.064 55.5111 298.064 59.4335C298.064 63.3683 297.333 66.7497 295.87 69.5778C294.419 72.4059 292.322 74.5761 289.58 76.0885C286.85 77.601 283.567 78.3572 279.731 78.3572ZM273.774 72.4366H279.399C282.03 72.4366 284.225 71.9571 285.984 70.998C287.742 70.0266 289.064 68.5818 289.949 66.6636C290.834 64.7331 291.277 62.3231 291.277 59.4335C291.277 56.5439 290.834 54.1462 289.949 52.2403C289.064 50.3221 287.754 48.8896 286.02 47.9428C284.299 46.9837 282.159 46.5042 279.602 46.5042H273.774V72.4366Z" fill="black"/>
<path d="M328.377 40.5836H335.22V65.2619C335.22 67.967 334.581 70.3463 333.302 72.3997C332.035 74.4532 330.252 76.0578 327.953 77.2136C325.654 78.3572 322.967 78.9289 319.893 78.9289C316.807 78.9289 314.114 78.3572 311.814 77.2136C309.515 76.0578 307.732 74.4532 306.466 72.3997C305.199 70.3463 304.566 67.967 304.566 65.2619V40.5836H311.409V64.6901C311.409 66.264 311.753 67.6657 312.442 68.8953C313.142 70.1249 314.126 71.0902 315.393 71.7911C316.659 72.4796 318.159 72.8239 319.893 72.8239C321.627 72.8239 323.127 72.4796 324.393 71.7911C325.672 71.0902 326.656 70.1249 327.344 68.8953C328.033 67.6657 328.377 66.264 328.377 64.6901V40.5836Z" fill="black"/>
<path d="M342.658 78.3572V40.5836H349.5V57.9395H349.962L364.698 40.5836H373.054L358.446 57.5338L373.183 78.3572H364.957L353.687 62.1632L349.5 67.1063V78.3572H342.658Z" fill="black"/>
<path d="M377.808 78.3572V40.5836H402.375V46.3198H384.65V56.5747H401.102V62.3108H384.65V72.6211H402.523V78.3572H377.808Z" fill="black"/>
<path d="M406.774 40.5836H414.502L423.743 57.294H424.111L433.352 40.5836H441.08L427.339 64.2659V78.3572H420.515V64.2659L406.774 40.5836Z" fill="black"/>
<path d="M466.454 50.9677C466.282 49.3569 465.557 48.1027 464.278 47.2051C463.012 46.3075 461.364 45.8586 459.335 45.8586C457.909 45.8586 456.685 46.0738 455.665 46.5042C454.644 46.9346 453.863 47.5186 453.322 48.2564C452.781 48.9941 452.505 49.8364 452.492 50.7832C452.492 51.5702 452.671 52.2526 453.027 52.8305C453.396 53.4084 453.894 53.9003 454.521 54.3061C455.148 54.6995 455.843 55.0315 456.605 55.302C457.368 55.5725 458.136 55.8 458.911 55.9845L462.452 56.8698C463.878 57.2018 465.249 57.6506 466.565 58.2162C467.893 58.7818 469.08 59.495 470.125 60.3557C471.182 61.2164 472.018 62.2555 472.633 63.4728C473.248 64.6901 473.555 66.1164 473.555 67.7518C473.555 69.9651 472.99 71.914 471.859 73.5986C470.727 75.2709 469.092 76.5804 466.952 77.5272C464.825 78.4617 462.249 78.9289 459.224 78.9289C456.286 78.9289 453.734 78.474 451.57 77.5641C449.418 76.6542 447.734 75.3262 446.516 73.5801C445.311 71.8341 444.66 69.7069 444.561 67.1985H451.293C451.392 68.5142 451.798 69.6085 452.511 70.4815C453.224 71.3546 454.152 72.0062 455.296 72.4366C456.452 72.867 457.743 73.0822 459.169 73.0822C460.657 73.0822 461.96 72.8608 463.079 72.4182C464.21 71.9632 465.096 71.3361 465.735 70.5369C466.375 69.7253 466.7 68.7785 466.713 67.6965C466.7 66.7128 466.411 65.9012 465.846 65.2619C465.28 64.6102 464.487 64.0691 463.467 63.6388C462.458 63.1961 461.278 62.8026 459.925 62.4583L455.628 61.3517C452.517 60.5525 450.058 59.3413 448.25 57.7182C446.455 56.0828 445.557 53.9126 445.557 51.2074C445.557 48.9819 446.16 47.0329 447.365 45.3607C448.582 43.6884 450.236 42.3912 452.326 41.469C454.417 40.5344 456.784 40.0672 459.427 40.0672C462.108 40.0672 464.456 40.5344 466.473 41.469C468.502 42.3912 470.094 43.6761 471.25 45.3238C472.406 46.9591 473.002 48.8404 473.039 50.9677H466.454Z" fill="black"/>
</svg>
