<svg width="500" height="500" viewBox="0 0 500 500" fill="none" xmlns="http://www.w3.org/2000/svg">
<path fill-rule="evenodd" clip-rule="evenodd" d="M133.796 220.292L212.533 265.285C218.859 268.9 223.261 275.129 224.555 282.299L226.686 294.098C231.497 320.746 269.528 321.255 275.05 294.746L277.714 281.96C279.166 274.989 283.564 268.987 289.773 265.501L369.305 220.851C383.346 212.969 401.051 220.453 405.18 236.017L421.109 296.059C422.711 302.098 420.811 308.526 416.183 312.724C402.015 325.574 417.047 348.294 434.415 340.278L453.575 331.435C462.415 327.355 467.018 317.49 464.466 308.095L426.484 168.253C424.717 161.748 420.363 156.251 414.434 153.043L411.744 151.586C409.259 150.242 406.258 150.269 403.797 151.658L340.298 187.506C339.654 187.997 338.961 188.451 338.219 188.861L321.661 198.027L261.811 231.816C261.682 231.888 261.522 231.795 261.522 231.647C261.522 231.5 261.364 231.406 261.235 231.478L257.382 233.611C252.311 236.417 246.137 236.344 241.134 233.418L179.961 197.638L98.0134 149.921C95.5383 148.48 92.4911 148.433 89.9722 149.796L84.1204 152.963C78.1054 156.218 73.7141 161.827 71.9977 168.447L35.62 308.761C33.2775 317.797 37.7379 327.213 46.2129 331.125L65.0892 339.837C82.0538 347.667 96.6396 325.347 82.6573 312.953C77.8192 308.665 75.9874 301.914 77.9941 295.769L98.1518 234.036C102.997 219.198 120.243 212.548 133.796 220.292ZM342.037 157.558C339.525 159.063 336.402 159.116 333.84 157.698L257.382 115.372C252.311 112.566 246.137 112.639 241.134 115.565L169.657 157.372C167.035 158.906 163.78 158.867 161.195 157.271L133.555 140.199C128.183 136.881 128.409 128.995 133.962 125.989L237.477 69.9695C244.793 66.0102 253.613 66.0102 260.929 69.9695L367.687 127.744C373.284 130.773 373.457 138.742 367.997 142.012L342.037 157.558Z" fill="black"/>
<path d="M39.6721 378.699H53.6881L68.4915 414.815H69.1214L83.9248 378.699H97.9408V432.454H86.917V397.466H86.4708L72.5598 432.191H65.0531L51.1421 397.335H50.6959V432.454H39.6721V378.699Z" fill="black"/>
<path d="M156.702 405.576C156.702 411.438 155.59 416.425 153.368 420.537C151.163 424.649 148.154 427.79 144.339 429.96C140.542 432.112 136.273 433.188 131.531 433.188C126.754 433.188 122.467 432.104 118.669 429.934C114.872 427.764 111.871 424.623 109.667 420.511C107.462 416.399 106.36 411.421 106.36 405.576C106.36 399.715 107.462 394.728 109.667 390.616C111.871 386.504 114.872 383.371 118.669 381.219C122.467 379.049 126.754 377.964 131.531 377.964C136.273 377.964 140.542 379.049 144.339 381.219C148.154 383.371 151.163 386.504 153.368 390.616C155.59 394.728 156.702 399.715 156.702 405.576ZM145.179 405.576C145.179 401.779 144.61 398.577 143.473 395.97C142.353 393.363 140.77 391.385 138.722 390.038C136.675 388.691 134.278 388.017 131.531 388.017C128.783 388.017 126.386 388.691 124.339 390.038C122.292 391.385 120.699 393.363 119.562 395.97C118.442 398.577 117.882 401.779 117.882 405.576C117.882 409.374 118.442 412.576 119.562 415.183C120.699 417.79 122.292 419.767 124.339 421.115C126.386 422.462 128.783 423.136 131.531 423.136C134.278 423.136 136.675 422.462 138.722 421.115C140.77 419.767 142.353 417.79 143.473 415.183C144.61 412.576 145.179 409.374 145.179 405.576Z" fill="black"/>
<path d="M184.176 432.454H165.12V378.699H184.333C189.74 378.699 194.395 379.776 198.297 381.928C202.199 384.063 205.2 387.133 207.299 391.141C209.417 395.148 210.475 399.942 210.475 405.524C210.475 411.123 209.417 415.935 207.299 419.96C205.2 423.984 202.181 427.073 198.244 429.225C194.325 431.377 189.635 432.454 184.176 432.454ZM176.485 422.716H183.703C187.063 422.716 189.889 422.121 192.181 420.931C194.491 419.724 196.223 417.86 197.378 415.34C198.55 412.803 199.137 409.531 199.137 405.524C199.137 401.552 198.55 398.306 197.378 395.786C196.223 393.267 194.5 391.412 192.207 390.222C189.915 389.032 187.089 388.437 183.73 388.437H176.485V422.716Z" fill="black"/>
<path d="M252.097 378.699H263.462V413.608C263.462 417.528 262.526 420.957 260.653 423.897C258.799 426.837 256.2 429.129 252.858 430.774C249.516 432.401 245.622 433.215 241.178 433.215C236.716 433.215 232.814 432.401 229.472 430.774C226.13 429.129 223.531 426.837 221.676 423.897C219.822 420.957 218.894 417.528 218.894 413.608V378.699H230.259V412.637C230.259 414.684 230.705 416.504 231.598 418.096C232.508 419.689 233.785 420.94 235.43 421.85C237.075 422.76 238.991 423.215 241.178 423.215C243.383 423.215 245.299 422.76 246.926 421.85C248.571 420.94 249.84 419.689 250.732 418.096C251.642 416.504 252.097 414.684 252.097 412.637V378.699Z" fill="black"/>
<path d="M272.812 432.454V378.699H284.177V402.401H284.886L304.23 378.699H317.852L297.905 402.768L318.089 432.454H304.493L289.768 410.353L284.177 417.178V432.454H272.812Z" fill="black"/>
<path d="M323.771 432.454V378.699H359.992V388.07H335.136V400.878H358.129V410.248H335.136V423.083H360.097V432.454H323.771Z" fill="black"/>
<path d="M365.878 378.699H378.608L390.865 401.849H391.39L403.648 378.699H416.378L396.771 413.451V432.454H385.485V413.451L365.878 378.699Z" fill="black"/>
<path d="M451.746 394.159C451.536 392.042 450.635 390.397 449.042 389.224C447.45 388.052 445.289 387.466 442.559 387.466C440.704 387.466 439.138 387.728 437.861 388.253C436.584 388.761 435.604 389.469 434.921 390.379C434.256 391.289 433.924 392.322 433.924 393.477C433.889 394.439 434.09 395.279 434.528 395.996C434.982 396.714 435.604 397.335 436.391 397.86C437.178 398.367 438.088 398.813 439.121 399.198C440.153 399.566 441.256 399.881 442.428 400.143L447.257 401.298C449.602 401.823 451.754 402.523 453.714 403.398C455.674 404.273 457.371 405.349 458.806 406.626C460.241 407.904 461.352 409.409 462.14 411.141C462.944 412.873 463.356 414.859 463.373 417.099C463.356 420.389 462.516 423.241 460.853 425.655C459.209 428.053 456.829 429.916 453.714 431.246C450.617 432.558 446.881 433.215 442.507 433.215C438.167 433.215 434.388 432.55 431.168 431.22C427.966 429.89 425.464 427.922 423.661 425.314C421.876 422.69 420.94 419.444 420.853 415.577H431.85C431.973 417.379 432.489 418.884 433.399 420.091C434.326 421.281 435.56 422.182 437.1 422.795C438.657 423.389 440.416 423.687 442.375 423.687C444.3 423.687 445.971 423.407 447.389 422.847C448.823 422.287 449.935 421.508 450.722 420.511C451.509 419.514 451.903 418.368 451.903 417.073C451.903 415.865 451.544 414.85 450.827 414.028C450.127 413.206 449.095 412.506 447.73 411.928C446.382 411.351 444.729 410.826 442.769 410.353L436.916 408.884C432.384 407.781 428.806 406.058 426.181 403.713C423.556 401.368 422.253 398.21 422.27 394.238C422.253 390.983 423.119 388.14 424.869 385.707C426.636 383.275 429.059 381.377 432.139 380.012C435.219 378.647 438.718 377.964 442.638 377.964C446.627 377.964 450.11 378.647 453.084 380.012C456.076 381.377 458.404 383.275 460.066 385.707C461.728 388.14 462.586 390.957 462.638 394.159H451.746Z" fill="black"/>
</svg>
